<?xml version="1.0" encoding="UTF-8"?>
<!-- Honk mode: a goose, flashed instead of the checkmark when "honk on copy" is on. -->
<svg height="16px" viewBox="0 0 16 16" width="16px" xmlns="http://www.w3.org/2000/svg">
    <path d="M 2.1 3.4 a 1.9 1.9 0 1 1 3.8 0 a 1.9 1.9 0 1 1 -3.8 0 z M 2.5 2.7 L 2.5 4.3 L 0.2 3.7 Z M 2.9 4.5 H 5.4 C 5.4 6.6 6 8.4 7.4 8.4 C 9 8.3 10.8 8.2 12.4 8.1 L 15.6 6 L 14.6 10.9 C 14 12.8 12.6 13.8 10.8 13.8 H 7 C 5.2 13.8 4 12.8 4 11.4 C 4 9.2 3.6 7 2.9 4.5 Z" fill="#2e3436"/>
</svg>
